<mxfile host="Electron" agent="Mozilla/5.0 (Windows NT 10.0; Win64; x64) AppleWebKit/537.36 (KHTML, like Gecko) draw.io/24.7.8 Chrome/128.0.6613.36 Electron/32.0.1 Safari/537.36" version="24.7.8">
  <diagram name="Page-1" id="c7558073-3199-34d8-9f00-42111426c3f3">
    <mxGraphModel dx="2125" dy="607" grid="1" gridSize="10" guides="1" tooltips="1" connect="1" arrows="1" fold="1" page="1" pageScale="1" pageWidth="826" pageHeight="1169" background="none" math="0" shadow="0">
      <root>
        <mxCell id="0" />
        <mxCell id="1" parent="0" />
        <mxCell id="tj8AZgJusbTu-7IndE1M-113" value="&lt;font style=&quot;font-size: 14px;&quot;&gt;&lt;b&gt;&lt;u&gt;i) Level O DFD&lt;/u&gt;&lt;/b&gt;&lt;/font&gt;" style="text;html=1;align=center;verticalAlign=middle;resizable=0;points=[];autosize=1;strokeColor=none;fillColor=none;" parent="1" vertex="1">
          <mxGeometry x="310" y="50" width="120" height="30" as="geometry" />
        </mxCell>
        <mxCell id="tj8AZgJusbTu-7IndE1M-114" value="" style="group" parent="1" vertex="1" connectable="0">
          <mxGeometry x="30" y="300" width="765" height="260" as="geometry" />
        </mxCell>
        <mxCell id="2" value="&lt;p style=&quot;margin: 0px; margin-top: 4px; text-align: center; text-decoration: underline;&quot;&gt;&lt;strong&gt;1&lt;br&gt;&lt;/strong&gt;&lt;/p&gt;&lt;hr&gt;&lt;p style=&quot;margin: 0px; margin-left: 8px;&quot;&gt;Order product&lt;/p&gt;" style="verticalAlign=middle;align=center;overflow=fill;fontSize=12;fontFamily=Helvetica;html=1;rounded=1;fontStyle=1;strokeWidth=3;fillColor=#E6FFCC" parent="tj8AZgJusbTu-7IndE1M-114" vertex="1">
          <mxGeometry x="298.5625" width="116.87500000000001" height="83.57142857142856" as="geometry" />
        </mxCell>
        <mxCell id="4" value="CUSTOMER" style="whiteSpace=wrap;align=center;verticalAlign=middle;fontStyle=1;strokeWidth=3;fillColor=#FFFFCC" parent="tj8AZgJusbTu-7IndE1M-114" vertex="1">
          <mxGeometry y="13.928571428571425" width="95.625" height="55.7142857142857" as="geometry" />
        </mxCell>
        <mxCell id="12" value="BUSINESS&#xa;OWNER" style="whiteSpace=wrap;align=center;verticalAlign=middle;fontStyle=1;strokeWidth=3;fillColor=#FFFFCC" parent="tj8AZgJusbTu-7IndE1M-114" vertex="1">
          <mxGeometry x="653.4375" y="10.214285714285712" width="111.5625" height="68.7142857142857" as="geometry" />
        </mxCell>
        <mxCell id="37" value="" style="edgeStyle=none;noEdgeStyle=1;strokeColor=#990000;strokeWidth=2;exitX=1;exitY=0.5;exitDx=0;exitDy=0;" parent="tj8AZgJusbTu-7IndE1M-114" source="52" target="2" edge="1">
          <mxGeometry width="100" height="100" relative="1" as="geometry">
            <mxPoint x="265.62500000000006" y="73.35714285714285" as="sourcePoint" />
            <mxPoint x="371.87500000000006" y="-19.5" as="targetPoint" />
          </mxGeometry>
        </mxCell>
        <mxCell id="60" value="customer record" style="text;spacingTop=-5;align=center" parent="tj8AZgJusbTu-7IndE1M-114" vertex="1">
          <mxGeometry x="361.25000000000006" y="110.00142857142856" width="106.25000000000001" height="19.5" as="geometry" />
        </mxCell>
        <mxCell id="83" value="" style="edgeStyle=elbowEdgeStyle;elbow=vertical;strokeColor=#990000;strokeWidth=2" parent="tj8AZgJusbTu-7IndE1M-114" edge="1">
          <mxGeometry width="100" height="100" relative="1" as="geometry">
            <mxPoint x="357" y="83.57142857142856" as="sourcePoint" />
            <mxPoint x="357" y="160" as="targetPoint" />
          </mxGeometry>
        </mxCell>
        <mxCell id="tj8AZgJusbTu-7IndE1M-104" value="" style="edgeStyle=none;noEdgeStyle=1;strokeColor=#990000;strokeWidth=2;exitX=1;exitY=0.5;exitDx=0;exitDy=0;" parent="tj8AZgJusbTu-7IndE1M-114" edge="1">
          <mxGeometry width="100" height="100" relative="1" as="geometry">
            <mxPoint x="418.09375000000006" y="46.19642857142857" as="sourcePoint" />
            <mxPoint x="648.1250000000001" y="46.42857142857142" as="targetPoint" />
            <Array as="points">
              <mxPoint x="478.125" y="46.19642857142857" />
            </Array>
          </mxGeometry>
        </mxCell>
        <mxCell id="63" value="order details, &#xa;customer details" style="text;spacingTop=-5;align=center" parent="tj8AZgJusbTu-7IndE1M-114" vertex="1">
          <mxGeometry x="456.875" y="10.214285714285712" width="138.125" height="45.5" as="geometry" />
        </mxCell>
        <mxCell id="tj8AZgJusbTu-7IndE1M-112" value="D1- order file" style="shape=dataStorage;whiteSpace=wrap;html=1;fixedSize=1;" parent="tj8AZgJusbTu-7IndE1M-114" vertex="1">
          <mxGeometry x="289.53625" y="159.99999999999994" width="134.9375" height="45.5" as="geometry" />
        </mxCell>
        <mxCell id="tj8AZgJusbTu-7IndE1M-152" value="" style="edgeStyle=none;noEdgeStyle=1;strokeColor=#990000;strokeWidth=2;exitX=1;exitY=0.5;exitDx=0;exitDy=0;" parent="tj8AZgJusbTu-7IndE1M-114" source="4" edge="1">
          <mxGeometry width="100" height="100" relative="1" as="geometry">
            <mxPoint x="126" y="342" as="sourcePoint" />
            <mxPoint x="300" y="42" as="targetPoint" />
          </mxGeometry>
        </mxCell>
        <mxCell id="52" value="prodcut name&amp;quantity, &#xa;customer name &amp;number" style="text;spacingTop=-5;align=center" parent="tj8AZgJusbTu-7IndE1M-114" vertex="1">
          <mxGeometry x="86.065" y="0.004285714285686026" width="212.50000000000003" height="40.85714285714285" as="geometry" />
        </mxCell>
        <mxCell id="tj8AZgJusbTu-7IndE1M-118" value="&lt;font style=&quot;font-size: 14px;&quot;&gt;&lt;b&gt;&lt;u&gt;ii) Level 1 DFDs&lt;/u&gt;&lt;/b&gt;&lt;/font&gt;" style="text;html=1;align=center;verticalAlign=middle;resizable=0;points=[];autosize=1;strokeColor=none;fillColor=none;" parent="1" vertex="1">
          <mxGeometry x="335" y="250" width="130" height="30" as="geometry" />
        </mxCell>
        <mxCell id="tj8AZgJusbTu-7IndE1M-119" value="&lt;font style=&quot;font-size: 14px;&quot;&gt;&lt;b&gt;&lt;u&gt;iii) Level 2 DFDs&lt;/u&gt;&lt;/b&gt;&lt;/font&gt;" style="text;html=1;align=center;verticalAlign=middle;resizable=0;points=[];autosize=1;strokeColor=none;fillColor=none;" parent="1" vertex="1">
          <mxGeometry x="362.5" y="560" width="130" height="30" as="geometry" />
        </mxCell>
        <mxCell id="tj8AZgJusbTu-7IndE1M-133" value="" style="group" parent="1" vertex="1" connectable="0">
          <mxGeometry x="60" y="100" width="630" height="90" as="geometry" />
        </mxCell>
        <mxCell id="tj8AZgJusbTu-7IndE1M-123" value="CUSTOMER" style="whiteSpace=wrap;align=center;verticalAlign=middle;fontStyle=1;strokeWidth=3;fillColor=#FFFFCC" parent="tj8AZgJusbTu-7IndE1M-133" vertex="1">
          <mxGeometry y="10" width="90" height="60" as="geometry" />
        </mxCell>
        <mxCell id="tj8AZgJusbTu-7IndE1M-125" value="&lt;p style=&quot;margin: 0px; margin-top: 4px; text-align: center; text-decoration: underline;&quot;&gt;&lt;span style=&quot;background-color: initial;&quot;&gt;0&lt;/span&gt;&lt;/p&gt;&lt;p style=&quot;margin: 0px; margin-top: 4px; text-align: center; text-decoration: underline;&quot;&gt;&lt;span style=&quot;background-color: initial;&quot;&gt;&lt;br&gt;&lt;/span&gt;&lt;/p&gt;&lt;p style=&quot;margin: 0px; margin-top: 4px; text-align: center; text-decoration: underline;&quot;&gt;&lt;span style=&quot;background-color: initial;&quot;&gt;Order&amp;nbsp;&lt;/span&gt;&lt;br&gt;&lt;/p&gt;" style="verticalAlign=middle;align=center;overflow=fill;fontSize=12;fontFamily=Helvetica;html=1;rounded=1;fontStyle=1;strokeWidth=3;fillColor=#E6FFCC" parent="tj8AZgJusbTu-7IndE1M-133" vertex="1">
          <mxGeometry x="250" width="110" height="90" as="geometry" />
        </mxCell>
        <mxCell id="tj8AZgJusbTu-7IndE1M-126" value="" style="endArrow=classic;html=1;rounded=0;entryX=0;entryY=0.444;entryDx=0;entryDy=0;exitX=1;exitY=0.5;exitDx=0;exitDy=0;exitPerimeter=0;strokeColor=#FF0000;fillColor=#FF0000;entryPerimeter=0;" parent="tj8AZgJusbTu-7IndE1M-133" source="tj8AZgJusbTu-7IndE1M-123" target="tj8AZgJusbTu-7IndE1M-125" edge="1">
          <mxGeometry width="50" height="50" relative="1" as="geometry">
            <mxPoint x="120" y="60" as="sourcePoint" />
            <mxPoint x="170" y="10" as="targetPoint" />
          </mxGeometry>
        </mxCell>
        <mxCell id="tj8AZgJusbTu-7IndE1M-129" value="new customer info" style="text;html=1;align=center;verticalAlign=middle;resizable=0;points=[];autosize=1;strokeColor=none;fillColor=none;" parent="tj8AZgJusbTu-7IndE1M-133" vertex="1">
          <mxGeometry x="105" y="10" width="120" height="30" as="geometry" />
        </mxCell>
        <mxCell id="tj8AZgJusbTu-7IndE1M-130" value="BUSINESS&#xa;OWNER" style="whiteSpace=wrap;align=center;verticalAlign=middle;fontStyle=1;strokeWidth=3;fillColor=#FFFFCC" parent="tj8AZgJusbTu-7IndE1M-133" vertex="1">
          <mxGeometry x="540" y="10" width="90" height="60" as="geometry" />
        </mxCell>
        <mxCell id="tj8AZgJusbTu-7IndE1M-131" value="" style="endArrow=classic;html=1;rounded=0;exitX=1.027;exitY=0.433;exitDx=0;exitDy=0;exitPerimeter=0;strokeColor=#FF0000;fillColor=#FF0000;" parent="tj8AZgJusbTu-7IndE1M-133" source="tj8AZgJusbTu-7IndE1M-125" edge="1">
          <mxGeometry width="50" height="50" relative="1" as="geometry">
            <mxPoint x="430" y="30" as="sourcePoint" />
            <mxPoint x="540" y="40" as="targetPoint" />
            <Array as="points">
              <mxPoint x="480" y="40" />
            </Array>
          </mxGeometry>
        </mxCell>
        <mxCell id="tj8AZgJusbTu-7IndE1M-132" value="customer info" style="text;html=1;align=center;verticalAlign=middle;resizable=0;points=[];autosize=1;strokeColor=none;fillColor=none;" parent="tj8AZgJusbTu-7IndE1M-133" vertex="1">
          <mxGeometry x="405" y="10" width="100" height="30" as="geometry" />
        </mxCell>
        <mxCell id="tj8AZgJusbTu-7IndE1M-140" value="CUSTOMER" style="whiteSpace=wrap;align=center;verticalAlign=middle;fontStyle=1;strokeWidth=3;fillColor=#FFFFCC" parent="1" vertex="1">
          <mxGeometry x="60" y="650" width="95.625" height="55.7142857142857" as="geometry" />
        </mxCell>
        <mxCell id="tj8AZgJusbTu-7IndE1M-141" value="&lt;p style=&quot;margin: 0px; margin-top: 4px; text-align: center; text-decoration: underline;&quot;&gt;&lt;strong&gt;1.1&lt;br&gt;&lt;/strong&gt;&lt;/p&gt;&lt;hr&gt;&lt;p style=&quot;margin: 0px; margin-left: 8px;&quot;&gt;Register&amp;nbsp;&lt;/p&gt;&lt;p style=&quot;margin: 0px; margin-left: 8px;&quot;&gt;customer&lt;/p&gt;" style="verticalAlign=middle;align=center;overflow=fill;fontSize=12;fontFamily=Helvetica;html=1;rounded=1;fontStyle=1;strokeWidth=3;fillColor=#E6FFCC" parent="1" vertex="1">
          <mxGeometry x="348.13" y="630" width="116.87500000000001" height="83.57142857142856" as="geometry" />
        </mxCell>
        <mxCell id="tj8AZgJusbTu-7IndE1M-149" value="" style="edgeStyle=none;noEdgeStyle=1;strokeColor=#990000;strokeWidth=2;exitX=0.094;exitY=1.11;exitDx=0;exitDy=0;exitPerimeter=0;" parent="1" edge="1" source="tj8AZgJusbTu-7IndE1M-153">
          <mxGeometry width="100" height="100" relative="1" as="geometry">
            <mxPoint x="140.63" y="677.36" as="sourcePoint" />
            <mxPoint x="343.63" y="677.36" as="targetPoint" />
          </mxGeometry>
        </mxCell>
        <mxCell id="tj8AZgJusbTu-7IndE1M-153" value="customer name &amp;&#xa;customer cellphone number" style="text;spacingTop=-5;align=center" parent="1" vertex="1">
          <mxGeometry x="140.63" y="630" width="190" height="40.86" as="geometry" />
        </mxCell>
        <mxCell id="tj8AZgJusbTu-7IndE1M-154" value="BUSINESS &#xa;OWNER" style="whiteSpace=wrap;align=center;verticalAlign=middle;fontStyle=1;strokeWidth=3;fillColor=#FFFFCC" parent="1" vertex="1">
          <mxGeometry x="670" y="650" width="95.625" height="55.7142857142857" as="geometry" />
        </mxCell>
        <mxCell id="tj8AZgJusbTu-7IndE1M-155" value="" style="edgeStyle=none;noEdgeStyle=1;strokeColor=#990000;strokeWidth=2;exitX=1;exitY=0.5;exitDx=0;exitDy=0;" parent="1" edge="1">
          <mxGeometry width="100" height="100" relative="1" as="geometry">
            <mxPoint x="465.01" y="677.36" as="sourcePoint" />
            <mxPoint x="668.01" y="677.36" as="targetPoint" />
          </mxGeometry>
        </mxCell>
        <mxCell id="tj8AZgJusbTu-7IndE1M-156" value="customer details &amp; number" style="text;spacingTop=-5;align=center" parent="1" vertex="1">
          <mxGeometry x="465" y="650" width="190" height="20" as="geometry" />
        </mxCell>
        <mxCell id="tj8AZgJusbTu-7IndE1M-157" value="D1-order file" style="shape=dataStorage;whiteSpace=wrap;html=1;fixedSize=1;" parent="1" vertex="1">
          <mxGeometry x="360.06" y="810" width="132.44" height="45.5" as="geometry" />
        </mxCell>
        <mxCell id="tj8AZgJusbTu-7IndE1M-158" value="" style="edgeStyle=elbowEdgeStyle;elbow=vertical;strokeColor=#990000;strokeWidth=2;exitX=0.5;exitY=1;exitDx=0;exitDy=0;entryX=0.355;entryY=0.057;entryDx=0;entryDy=0;entryPerimeter=0;" parent="1" source="tj8AZgJusbTu-7IndE1M-141" target="tj8AZgJusbTu-7IndE1M-157" edge="1">
          <mxGeometry width="100" height="100" relative="1" as="geometry">
            <mxPoint x="420" y="750" as="sourcePoint" />
            <mxPoint x="410" y="810" as="targetPoint" />
          </mxGeometry>
        </mxCell>
        <mxCell id="tj8AZgJusbTu-7IndE1M-159" value="" style="edgeStyle=elbowEdgeStyle;elbow=vertical;strokeColor=#990000;strokeWidth=2;exitX=0.5;exitY=1;exitDx=0;exitDy=0;entryX=0.355;entryY=0.057;entryDx=0;entryDy=0;entryPerimeter=0;" parent="1" edge="1">
          <mxGeometry width="100" height="100" relative="1" as="geometry">
            <mxPoint x="430" y="812.57" as="sourcePoint" />
            <mxPoint x="430" y="713.57" as="targetPoint" />
          </mxGeometry>
        </mxCell>
        <mxCell id="4Pd_uTjT-nDggV-8KVH9-83" value="customer details" style="text;html=1;align=center;verticalAlign=middle;resizable=0;points=[];autosize=1;strokeColor=none;fillColor=none;" vertex="1" parent="1">
          <mxGeometry x="295" y="748" width="110" height="30" as="geometry" />
        </mxCell>
        <mxCell id="4Pd_uTjT-nDggV-8KVH9-84" value="customer number" style="text;html=1;align=center;verticalAlign=middle;resizable=0;points=[];autosize=1;strokeColor=none;fillColor=none;" vertex="1" parent="1">
          <mxGeometry x="430" y="748" width="120" height="30" as="geometry" />
        </mxCell>
        <mxCell id="4Pd_uTjT-nDggV-8KVH9-85" value="" style="endArrow=classic;html=1;rounded=0;" edge="1" parent="1">
          <mxGeometry width="50" height="50" relative="1" as="geometry">
            <mxPoint x="87.85000000000001" y="710" as="sourcePoint" />
            <mxPoint x="87.85000000000001" y="840" as="targetPoint" />
            <Array as="points" />
          </mxGeometry>
        </mxCell>
        <mxCell id="4Pd_uTjT-nDggV-8KVH9-86" value="product name&amp;nbsp;&lt;div&gt;&amp;amp; quantity&lt;/div&gt;" style="text;html=1;align=center;verticalAlign=middle;resizable=0;points=[];autosize=1;strokeColor=none;fillColor=none;" vertex="1" parent="1">
          <mxGeometry x="-10" y="733" width="100" height="40" as="geometry" />
        </mxCell>
        <mxCell id="4Pd_uTjT-nDggV-8KVH9-87" value="&lt;p style=&quot;margin: 0px; margin-top: 4px; text-align: center; text-decoration: underline;&quot;&gt;&lt;strong&gt;1.2&lt;br&gt;&lt;/strong&gt;&lt;/p&gt;&lt;hr&gt;&lt;p style=&quot;margin: 0px; margin-left: 8px;&quot;&gt;Choose product&lt;/p&gt;" style="verticalAlign=middle;align=center;overflow=fill;fontSize=12;fontFamily=Helvetica;html=1;rounded=1;fontStyle=1;strokeWidth=3;fillColor=#E6FFCC" vertex="1" parent="1">
          <mxGeometry x="30" y="840" width="116.87500000000001" height="83.57142857142856" as="geometry" />
        </mxCell>
        <mxCell id="4Pd_uTjT-nDggV-8KVH9-89" value="" style="endArrow=classic;html=1;rounded=0;exitX=0.5;exitY=1;exitDx=0;exitDy=0;entryX=0.5;entryY=0;entryDx=0;entryDy=0;" edge="1" parent="1" source="4Pd_uTjT-nDggV-8KVH9-87" target="4Pd_uTjT-nDggV-8KVH9-93">
          <mxGeometry width="50" height="50" relative="1" as="geometry">
            <mxPoint x="170" y="990" as="sourcePoint" />
            <mxPoint x="270" y="990" as="targetPoint" />
            <Array as="points">
              <mxPoint x="88" y="990" />
            </Array>
          </mxGeometry>
        </mxCell>
        <mxCell id="4Pd_uTjT-nDggV-8KVH9-91" value="order details &amp;amp; number" style="text;html=1;align=center;verticalAlign=middle;resizable=0;points=[];autosize=1;strokeColor=none;fillColor=none;" vertex="1" parent="1">
          <mxGeometry x="6.880000000000003" y="980" width="140" height="30" as="geometry" />
        </mxCell>
        <mxCell id="4Pd_uTjT-nDggV-8KVH9-93" value="BUSINESS &#xa;OWNER" style="whiteSpace=wrap;align=center;verticalAlign=middle;fontStyle=1;strokeWidth=3;fillColor=#FFFFCC" vertex="1" parent="1">
          <mxGeometry x="40.629999999999995" y="1090" width="95.625" height="55.7142857142857" as="geometry" />
        </mxCell>
        <mxCell id="4Pd_uTjT-nDggV-8KVH9-94" value="" style="endArrow=classic;html=1;rounded=0;exitX=1;exitY=0.5;exitDx=0;exitDy=0;entryX=0.59;entryY=-0.05;entryDx=0;entryDy=0;entryPerimeter=0;" edge="1" parent="1" source="4Pd_uTjT-nDggV-8KVH9-87" target="4Pd_uTjT-nDggV-8KVH9-95">
          <mxGeometry width="50" height="50" relative="1" as="geometry">
            <mxPoint x="230" y="890" as="sourcePoint" />
            <mxPoint x="293" y="970" as="targetPoint" />
            <Array as="points">
              <mxPoint x="290" y="882" />
            </Array>
          </mxGeometry>
        </mxCell>
        <mxCell id="4Pd_uTjT-nDggV-8KVH9-95" value="D1-order file" style="shape=dataStorage;whiteSpace=wrap;html=1;fixedSize=1;" vertex="1" parent="1">
          <mxGeometry x="215.69" y="980" width="132.44" height="45.5" as="geometry" />
        </mxCell>
        <mxCell id="4Pd_uTjT-nDggV-8KVH9-96" value="" style="endArrow=classic;html=1;rounded=0;exitX=0.359;exitY=-0.05;exitDx=0;exitDy=0;entryX=0.989;entryY=0.859;entryDx=0;entryDy=0;entryPerimeter=0;exitPerimeter=0;" edge="1" parent="1" source="4Pd_uTjT-nDggV-8KVH9-95" target="4Pd_uTjT-nDggV-8KVH9-87">
          <mxGeometry width="50" height="50" relative="1" as="geometry">
            <mxPoint x="320" y="970" as="sourcePoint" />
            <mxPoint x="140.63" y="1010" as="targetPoint" />
            <Array as="points">
              <mxPoint x="250" y="910" />
            </Array>
          </mxGeometry>
        </mxCell>
        <mxCell id="4Pd_uTjT-nDggV-8KVH9-97" value="order details" style="text;html=1;align=center;verticalAlign=middle;resizable=0;points=[];autosize=1;strokeColor=none;fillColor=none;" vertex="1" parent="1">
          <mxGeometry x="165" y="838" width="90" height="30" as="geometry" />
        </mxCell>
        <mxCell id="4Pd_uTjT-nDggV-8KVH9-98" value="order number" style="text;html=1;align=center;verticalAlign=middle;resizable=0;points=[];autosize=1;strokeColor=none;fillColor=none;" vertex="1" parent="1">
          <mxGeometry x="150" y="908" width="100" height="30" as="geometry" />
        </mxCell>
      </root>
    </mxGraphModel>
  </diagram>
</mxfile>
